<svg version="1.1" id="logo" xmlns="http://www.w3.org/2000/svg" xmlns:xlink="http://www.w3.org/1999/xlink" x="0px" y="0px" viewBox="0 0 800 300" width="800" height="300" xml:space="preserve"><rect x="84" y="87" fill="#ffc425" width="52.6" height="18.2"></rect> <defs><filter id="Adobe_OpacityMaskFilter" filterUnits="userSpaceOnUse" x="66.6" y="30.4" width="89" height="24.7"><feColorMatrix type="matrix" values="1 0 0 0 0  0 1 0 0 0  0 0 1 0 0  0 0 0 1 0"></feColorMatrix></filter></defs> <mask maskUnits="userSpaceOnUse" x="66.6" y="30.4" width="89" height="24.7" id="SVGID_1_"><g class="st1"><polygon points="98.5,32.9 71.3,51.1 75,56.1 153.7,56.1 153.7,32.9 		" class="st2"></polygon></g></mask> <g class="st3"><g><image width="371" height="103" transform="matrix(0.24 0 0 0.24 66.6 30.36)" style="overflow: visible;"></image></g> <g><polygon fill="#ffc425" points="98.5,32.9 71.3,51.1 153.7,51.1 153.7,32.9 		"></polygon></g></g> <defs><filter id="Adobe_OpacityMaskFilter_1_" filterUnits="userSpaceOnUse" x="66.6" y="136.9" width="89" height="25"><feColorMatrix type="matrix" values="1 0 0 0 0  0 1 0 0 0  0 0 1 0 0  0 0 0 1 0"></feColorMatrix></filter></defs> <mask maskUnits="userSpaceOnUse" x="66.6" y="136.9" width="89" height="25" id="SVGID_2_"><g class="st5"><polygon points="98.5,159.2 71.3,141 79.9,132.7 153.7,132.7 153.7,159.2 		" class="st2"></polygon></g></mask> <g class="st6"><g><image width="371" height="104" transform="matrix(0.24 0 0 0.24 66.6 136.92)" style="overflow: visible;"></image></g> <g><polygon fill="#ffc425" points="98.5,159.2 71.3,141 153.7,141 153.7,159.2 		"></polygon></g></g> <g><path fill="#ffc425" d="M456.4,162.5h10.2c9.8,0,14.4,3.3,14.4,10.5c0,6.5-4.7,10.4-12.7,10.4H465v11.2h-8.6V162.5z M465,177.3h2.2
		c2.9,0,5.3-1.1,5.3-4.4c0-3.3-2.3-4.3-5.3-4.3H465V177.3z"></path> <path fill="#ffc425" d="M522.1,162.5h22.6v6.1h-14.1v6.6h13.3v6.1h-13.3v7.3h14.6v6.1h-23.1V162.5z"></path> <path fill="#ffc425" d="M602.6,161.9c10.6,0,16.1,6.3,16.1,16.6c0,10.2-5.6,16.6-16.1,16.6c-10.5,0-16.1-6.4-16.1-16.6
		C586.5,168.2,592,161.9,602.6,161.9z M602.6,188.8c5.2,0,7.3-5,7.3-10.3c0-5.6-2.1-10.3-7.3-10.3c-5.2,0-7.3,4.7-7.3,10.3
		C595.3,183.8,597.4,188.8,602.6,188.8z"></path></g> <g><path fill="#7b8aa7ff" d="M320.1,44.5c8.3,0,20,1.4,26.5,4.5l-1,7.7c-8.7-4.4-18.7-5-25.5-5c-25.6,0-42.1,17.5-42.1,44.7
		c0,27.6,16.1,44.7,42.1,44.7c2.6,0,16.1-0.2,22-3.8l0.4-0.2v-34.9h-23.7V95H351v47.4c-9.6,4.1-19.4,6-30.9,6
		c-15.4,0-28.3-4.9-37.2-14.3c-8.8-9.2-13.4-22.2-13.4-37.7c0-15.2,4.7-28.1,13.7-37.4C292.2,49.5,305,44.5,320.1,44.5"></path></g> <g><path fill="#6d6e70" d="M509.7,44.5c8.3,0,20,1.4,26.5,4.5l-1,7.7c-8.7-4.4-18.7-5-25.5-5c-25.6,0-42.1,17.5-42.1,44.7
		c0,27.6,16.1,44.7,42.1,44.7c2.6,0,16.1-0.2,22-3.8l0.4-0.2v-34.9h-23.7V95h32.2v47.4c-9.6,4.1-19.4,6-30.9,6
		c-15.4,0-28.3-4.9-37.2-14.3c-8.8-9.2-13.4-22.2-13.4-37.7c0-15.2,4.7-28.1,13.7-37.4C481.8,49.5,494.6,44.5,509.7,44.5"></path></g> <g><path fill="#6d6e70" d="M617,46.3v7.3h-49.9V95h37.8v7.3h-37.8v37.2h51.6v7.3h-60.2V46.3H617"></path></g> <path fill="#6d6e70" d="M448.8,146.7h8.5l-40-100.4H406l-40,100.4h8.5l17.7-44.4H431L448.8,146.7z M395.1,95l15.8-39.7l0.7-1.7l0.7,1.7
	L428.2,95H395.1z"></path> <g><path fill="#6d6e70" d="M73,244.3v8.9H84v1.5H73v11.2h11.2v1.5h-13v-24.4h13v1.5H73z"></path> <path fill="#6d6e70" d="M124,242.8h1.9l6.2,10.5l6.2-10.5h1.9l-7.1,12l7.5,12.5h-1.9l-6.6-11l-6.6,11h-1.9l7.4-12.5L124,242.8z"></path> <path fill="#6d6e70" d="M182.3,267.2h-1.7v-24.4h4.8c2.1,0,4.2,0.1,5.9,1.4c1.7,1.3,2.4,3.1,2.4,5c0,1.7-0.8,3.7-2.3,4.8
		c-1.7,1.3-3.9,1.6-6,1.6h-3.1V267.2z M185.4,254.2c1.8,0,3.3-0.2,4.8-1.3c1.2-1,1.8-2.2,1.8-3.7c0-1.5-0.7-3-2.1-4
		c-1.4-0.9-3.1-1-4.8-1h-2.8v9.9H185.4z"></path> <path fill="#6d6e70" d="M235.9,244.3v8.9h10.9v1.5h-10.9v11.2h11.2v1.5h-13v-24.4h13v1.5H235.9z"></path> <path fill="#6d6e70" d="M305.7,247.8c-1.7-2.3-4.6-3.9-7.3-3.9c-5.4,0-9.9,5.2-9.9,11.2c0,2.9,1.1,5.5,2.9,7.5c1.8,1.9,4.4,3.4,7,3.4
		c2.5,0,5.7-1.5,7.3-3.7v2.1c-2,1.9-4.5,3-7.2,3c-6,0-11.3-5.7-11.3-12.5c0-6.9,5.2-12.6,11.3-12.6c2.6,0,5.3,1.2,7.2,3.2V247.8z"></path> <path fill="#6d6e70" d="M345.7,267.2h-1.7v-23h-7v-1.5h15.8v1.5h-7V267.2z"></path> <path fill="#6d6e70" d="M451.5,247L451.5,247l-9.5,21l-9.4-21h-0.1l-4.6,20.2h-1.7L432,242l10,22.2l10-22.2l5.8,25.2h-1.7L451.5,247z"></path> <path fill="#6d6e70" d="M518.3,255c0,6.9-5.2,12.5-11.3,12.5c-6.1,0-11.3-5.7-11.3-12.5c0-6.9,5.1-12.5,11.3-12.5
		C513.2,242.5,518.3,248.2,518.3,255z M497.2,255c0,6,4.5,11.1,9.9,11.1c5.4,0,9.9-5.1,9.9-11.1c0-6-4.5-11.1-9.9-11.1
		C501.6,243.9,497.2,249,497.2,255z"></path> <path fill="#6d6e70" d="M565,267.2h-2l-8.9-11.6h-0.9v11.6h-1.7v-24.4h3.4c2.2,0,4.4,0,6.2,1.2c1.9,1.2,2.7,3.2,2.7,5.2
		c0,4.2-3.3,6.4-7.8,6.4L565,267.2z M555.5,254.2c1.7,0,3.4-0.1,4.8-1.1c1.3-0.9,1.9-2.4,1.9-3.9c0-1.8-0.9-3.6-2.9-4.4
		c-1.4-0.6-3.3-0.6-4.9-0.6h-1.1v9.9H555.5z"></path> <path fill="#6d6e70" d="M607.5,244.3v8.9h10.9v1.5h-10.9v11.2h11.2v1.5h-13v-24.4h13v1.5H607.5z"></path></g> <rect x="71.3" y="232.3" fill="#ffc425" width="547.4" height="2"></rect> <g><path fill="#6d6e70" d="M253.1,46.3v100.4h-12.3l-54-91.8v91.8h-8.6V46.3h11.9l54.4,92.5V46.3H253.1"></path></g> <defs><filter id="Adobe_OpacityMaskFilter_2_" filterUnits="userSpaceOnUse" x="68.2" y="47.1" width="32.6" height="97.9"><feColorMatrix type="matrix" values="1 0 0 0 0  0 1 0 0 0  0 0 1 0 0  0 0 0 1 0"></feColorMatrix></filter></defs> <mask maskUnits="userSpaceOnUse" x="68.2" y="47.1" width="32.6" height="97.9" id="SVGID_3_"><g class="st8"><rect x="71.3" y="51.1" width="31.2" height="89.9" class="st2"></rect></g></mask> <g class="st9"><g><image width="136" height="408" transform="matrix(0.24 0 0 0.24 68.226 47.106)" style="overflow: visible;"></image></g> <g><rect x="71.3" y="51.1" fill="#ffc425" width="24.7" height="89.9"></rect></g></g></svg>